<?xml version="1.0" encoding="UTF-8" standalone="no"?><svg xmlns="http://www.w3.org/2000/svg" xmlns:xlink="http://www.w3.org/1999/xlink" contentStyleType="text/css" height="1212px" preserveAspectRatio="none" style="width:835px;height:1212px;background:#FFFFFF;" version="1.1" viewBox="0 0 835 1212" width="835px" zoomAndPan="magnify"><defs/><g><!--MD5=[cb6f29f35096fc5cedc9f73e7d6f3ea6]
class C_0001365247480956715224--><g id="elem_C_0001365247480956715224"><rect codeLine="2" fill="#F1F1F1" height="181.4754" id="C_0001365247480956715224" rx="2.5" ry="2.5" style="stroke:#181818;stroke-width:0.5;" width="87" x="661.5" y="1024"/><ellipse cx="676.5" cy="1040" fill="#EB937F" rx="11" ry="11" style="stroke:#181818;stroke-width:1.0;"/><path d="M679.4688,1046.5 L672.1563,1046.5 L672.1563,1033.8281 L679.4688,1033.8281 L679.4688,1035.7031 L674.2031,1035.7031 L674.2031,1038.9688 L679.1563,1038.9688 L679.1563,1040.8281 L674.2031,1040.8281 L674.2031,1044.625 L679.4688,1044.625 L679.4688,1046.5 Z " fill="#000000"/><text fill="#000000" font-family="sans-serif" font-size="14" lengthAdjust="spacing" textLength="55" x="690.5" y="1045.432">CellType</text><line style="stroke:#181818;stroke-width:0.5;" x1="662.5" x2="747.5" y1="1056" y2="1056"/><text fill="#000000" font-family="sans-serif" font-size="14" lengthAdjust="spacing" textLength="42" x="667.5" y="1074.9659">empty</text><text fill="#000000" font-family="sans-serif" font-size="14" lengthAdjust="spacing" textLength="25" x="667.5" y="1094.0339">wall</text><text fill="#000000" font-family="sans-serif" font-size="14" lengthAdjust="spacing" textLength="55" x="667.5" y="1113.1018">treasure</text><text fill="#000000" font-family="sans-serif" font-size="14" lengthAdjust="spacing" textLength="24" x="667.5" y="1132.1697">box</text><text fill="#000000" font-family="sans-serif" font-size="14" lengthAdjust="spacing" textLength="33" x="667.5" y="1151.2376">mark</text><text fill="#000000" font-family="sans-serif" font-size="14" lengthAdjust="spacing" textLength="43" x="667.5" y="1170.3055">hunter</text><text fill="#000000" font-family="sans-serif" font-size="14" lengthAdjust="spacing" textLength="37" x="667.5" y="1189.3734">guard</text><line style="stroke:#181818;stroke-width:0.5;" x1="662.5" x2="747.5" y1="1197.4754" y2="1197.4754"/></g><!--MD5=[35a33afe91cb24ace7d1332193a2db4a]
class C_0002079627403415545256--><g id="elem_C_0002079627403415545256"><rect codeLine="12" fill="#F1F1F1" height="181.4754" id="C_0002079627403415545256" rx="2.5" ry="2.5" style="stroke:#181818;stroke-width:0.5;" width="247" x="581.5" y="649.5"/><ellipse cx="689.25" cy="665.5" fill="#ADD1B2" rx="11" ry="11" style="stroke:#181818;stroke-width:1.0;"/><path d="M689.3594,660.7813 Q688.4375,660.7813 687.7031,661.0938 Q686.9844,661.4063 686.4844,662 Q685.9844,662.5781 685.7031,663.4531 Q685.4375,664.3281 685.4375,665.4219 Q685.4375,666.8594 685.875,667.9063 Q686.3281,668.9531 687.1719,669.5 Q688.0313,670.0469 689.3438,670.0469 Q690.125,670.0469 690.8125,669.9219 Q691.5156,669.7813 692.5156,669.4688 L692.5156,671.3438 Q691.6563,671.6719 690.8906,671.7969 Q690.1406,671.9219 689.125,671.9219 Q687.2031,671.9219 685.8906,671.125 Q684.5938,670.3125 683.9375,668.8438 Q683.2813,667.3594 683.2813,665.3906 Q683.2813,663.9688 683.6719,662.7969 Q684.0781,661.6094 684.8594,660.7344 Q685.6406,659.8594 686.7813,659.3906 Q687.9219,658.9063 689.3906,658.9063 Q690.3438,658.9063 691.2344,659.1094 Q692.1406,659.2969 693.0781,659.7656 L692.25,661.5469 Q691.4688,661.1719 690.8125,660.9844 Q690.1563,660.7813 689.3594,660.7813 Z " fill="#000000"/><text fill="#000000" font-family="sans-serif" font-size="14" lengthAdjust="spacing" textLength="23" x="709.75" y="670.932">Cell</text><line style="stroke:#181818;stroke-width:0.5;" x1="582.5" x2="827.5" y1="681.5" y2="681.5"/><ellipse cx="592.5" cy="692.5" fill="none" rx="3" ry="3" style="stroke:#038048;stroke-width:1.0;"/><text fill="#000000" font-family="sans-serif" font-size="14" lengthAdjust="spacing" textLength="101" x="601.5" y="700.4659">_type : CellType</text><ellipse cx="592.5" cy="711.5679" fill="none" rx="3" ry="3" style="stroke:#038048;stroke-width:1.0;"/><text fill="#000000" font-family="sans-serif" font-size="14" lengthAdjust="spacing" textLength="68" x="601.5" y="719.5339">_index : int</text><ellipse cx="592.5" cy="730.6358" fill="none" rx="3" ry="3" style="stroke:#038048;stroke-width:1.0;"/><text fill="#000000" font-family="sans-serif" font-size="14" lengthAdjust="spacing" textLength="107" x="601.5" y="738.6018">_mark_index : int</text><line style="stroke:#181818;stroke-width:0.5;" x1="582.5" x2="827.5" y1="746.7038" y2="746.7038"/><ellipse cx="592.5" cy="757.7038" fill="#84BE84" rx="3" ry="3" style="stroke:#038048;stroke-width:1.0;"/><text fill="#000000" font-family="sans-serif" font-size="14" lengthAdjust="spacing" textLength="132" x="601.5" y="765.6697">Cell() = default : void</text><ellipse cx="592.5" cy="776.7717" fill="#84BE84" rx="3" ry="3" style="stroke:#038048;stroke-width:1.0;"/><text fill="#000000" font-family="sans-serif" font-size="14" lengthAdjust="spacing" textLength="158" x="601.5" y="784.7376">Cell(CellType type) : void</text><ellipse cx="592.5" cy="795.8396" fill="#84BE84" rx="3" ry="3" style="stroke:#038048;stroke-width:1.0;"/><text fill="#000000" font-family="sans-serif" font-size="14" lengthAdjust="spacing" textLength="221" x="601.5" y="803.8055">Cell(CellType type, int index) : void</text><ellipse cx="592.5" cy="814.9075" fill="#84BE84" rx="3" ry="3" style="stroke:#038048;stroke-width:1.0;"/><text fill="#000000" font-family="sans-serif" font-size="14" lengthAdjust="spacing" textLength="148" x="601.5" y="822.8734">is_empty() const : bool</text></g><!--MD5=[d190a4dadacf1d5d17b6edf8c8874b3b]
class C_0002069755371297581881--><g id="elem_C_0002069755371297581881"><rect codeLine="22" fill="#F1F1F1" height="467.4942" id="C_0002069755371297581881" rx="2.5" ry="2.5" style="stroke:#181818;stroke-width:0.5;" width="277" x="115.5" y="7"/><ellipse cx="202.25" cy="23" fill="#A9DCDF" rx="11" ry="11" style="stroke:#181818;stroke-width:1.0;"/><path d="M206.0938,28.5 L204.625,24.75 L200.1875,24.75 L198.75,28.5 L196.625,28.5 L201.5781,15.7813 L203.3281,15.7813 L208.25,28.5 L206.0938,28.5 Z M202.75,19.5469 Q202.7031,19.3906 202.5781,19.0313 Q202.4531,18.6719 202.3438,18.2969 Q202.2344,17.9063 202.4375,17.8438 Q202.5938,18.0313 202.5,18.3906 Q202.4063,18.7344 202.3125,19.0313 Q202.2188,19.3125 202.1406,19.5469 L200.9063,22.8594 L203.9844,22.8594 L202.75,19.5469 Z " fill="#000000"/><text fill="#000000" font-family="sans-serif" font-size="14" font-style="italic" lengthAdjust="spacing" textLength="95" x="222.75" y="28.432">Environnement</text><line style="stroke:#181818;stroke-width:0.5;" x1="116.5" x2="391.5" y1="39" y2="39"/><ellipse cx="126.5" cy="50" fill="none" rx="3" ry="3" style="stroke:#038048;stroke-width:1.0;"/><text fill="#000000" font-family="sans-serif" font-size="14" lengthAdjust="spacing" textLength="88" x="135.5" y="57.9659">_walls : Wall *</text><ellipse cx="126.5" cy="69.0679" fill="none" rx="3" ry="3" style="stroke:#038048;stroke-width:1.0;"/><text fill="#000000" font-family="sans-serif" font-size="14" lengthAdjust="spacing" textLength="67" x="135.5" y="77.0339">_nwall : int</text><ellipse cx="126.5" cy="88.1358" fill="none" rx="3" ry="3" style="stroke:#038048;stroke-width:1.0;"/><text fill="#000000" font-family="sans-serif" font-size="14" lengthAdjust="spacing" textLength="87" x="135.5" y="96.1018">_picts : Wall *</text><ellipse cx="126.5" cy="107.2038" fill="none" rx="3" ry="3" style="stroke:#038048;stroke-width:1.0;"/><text fill="#000000" font-family="sans-serif" font-size="14" lengthAdjust="spacing" textLength="73" x="135.5" y="115.1697">_npicts : int</text><ellipse cx="126.5" cy="126.2717" fill="none" rx="3" ry="3" style="stroke:#038048;stroke-width:1.0;"/><text fill="#000000" font-family="sans-serif" font-size="14" lengthAdjust="spacing" textLength="94" x="135.5" y="134.2376">_boxes : Box *</text><ellipse cx="126.5" cy="145.3396" fill="none" rx="3" ry="3" style="stroke:#038048;stroke-width:1.0;"/><text fill="#000000" font-family="sans-serif" font-size="14" lengthAdjust="spacing" textLength="81" x="135.5" y="153.3055">_nboxes : int</text><ellipse cx="126.5" cy="164.4075" fill="none" rx="3" ry="3" style="stroke:#038048;stroke-width:1.0;"/><text fill="#000000" font-family="sans-serif" font-size="14" lengthAdjust="spacing" textLength="95" x="135.5" y="172.3734">_marks : Box *</text><ellipse cx="126.5" cy="183.4754" fill="none" rx="3" ry="3" style="stroke:#038048;stroke-width:1.0;"/><text fill="#000000" font-family="sans-serif" font-size="14" lengthAdjust="spacing" textLength="82" x="135.5" y="191.4414">_nmarks : int</text><ellipse cx="126.5" cy="202.5433" fill="none" rx="3" ry="3" style="stroke:#038048;stroke-width:1.0;"/><text fill="#000000" font-family="sans-serif" font-size="14" lengthAdjust="spacing" textLength="91" x="135.5" y="210.5093">_treasor : Box</text><ellipse cx="126.5" cy="221.6113" fill="none" rx="3" ry="3" style="stroke:#038048;stroke-width:1.0;"/><text fill="#000000" font-family="sans-serif" font-size="14" lengthAdjust="spacing" textLength="123" x="135.5" y="229.5772">_guards : Mover **</text><ellipse cx="126.5" cy="240.6792" fill="none" rx="3" ry="3" style="stroke:#038048;stroke-width:1.0;"/><text fill="#000000" font-family="sans-serif" font-size="14" lengthAdjust="spacing" textLength="86" x="135.5" y="248.6451">_nguards : int</text><ellipse cx="126.5" cy="259.7471" fill="none" rx="3" ry="3" style="stroke:#038048;stroke-width:1.0;"/><text fill="#000000" font-family="sans-serif" font-size="14" lengthAdjust="spacing" text-decoration="underline" textLength="102" x="135.5" y="267.713">scale : const int</text><ellipse cx="126.5" cy="278.815" fill="none" rx="3" ry="3" style="stroke:#038048;stroke-width:1.0;"/><text fill="#000000" font-family="sans-serif" font-size="14" lengthAdjust="spacing" text-decoration="underline" textLength="162" x="135.5" y="286.7809">texture_dir : const char *</text><ellipse cx="126.5" cy="297.8829" fill="none" rx="3" ry="3" style="stroke:#038048;stroke-width:1.0;"/><text fill="#000000" font-family="sans-serif" font-size="14" lengthAdjust="spacing" text-decoration="underline" textLength="163" x="135.5" y="305.8489">modele_dir : const char *</text><line style="stroke:#181818;stroke-width:0.5;" x1="116.5" x2="391.5" y1="313.9508" y2="313.9508"/><ellipse cx="126.5" cy="324.9508" fill="#84BE84" rx="3" ry="3" style="stroke:#038048;stroke-width:1.0;"/><text fill="#000000" font-family="sans-serif" font-size="14" lengthAdjust="spacing" text-decoration="underline" textLength="251" x="135.5" y="332.9168">init(char * filename) : Environnement *</text><ellipse cx="126.5" cy="344.0188" fill="#84BE84" rx="3" ry="3" style="stroke:#038048;stroke-width:1.0;"/><text fill="#000000" font-family="sans-serif" font-size="14" font-style="italic" lengthAdjust="spacing" textLength="96" x="135.5" y="351.9847">width() = 0 : int</text><ellipse cx="126.5" cy="363.0867" fill="#84BE84" rx="3" ry="3" style="stroke:#038048;stroke-width:1.0;"/><text fill="#000000" font-family="sans-serif" font-size="14" font-style="italic" lengthAdjust="spacing" textLength="101" x="135.5" y="371.0526">height() = 0 : int</text><ellipse cx="126.5" cy="382.1546" fill="#84BE84" rx="3" ry="3" style="stroke:#038048;stroke-width:1.0;"/><text fill="#000000" font-family="sans-serif" font-size="14" font-style="italic" lengthAdjust="spacing" textLength="159" x="135.5" y="390.1205">data(int i, int j) = 0 : char</text><ellipse cx="126.5" cy="401.2225" fill="#84BE84" rx="3" ry="3" style="stroke:#038048;stroke-width:1.0;"/><text fill="#000000" font-family="sans-serif" font-size="14" lengthAdjust="spacing" textLength="155" x="135.5" y="409.1884">~Environnement() : void</text><ellipse cx="126.5" cy="420.2904" fill="#84BE84" rx="3" ry="3" style="stroke:#038048;stroke-width:1.0;"/><text fill="#000000" font-family="sans-serif" font-size="14" lengthAdjust="spacing" textLength="121" x="135.5" y="428.2564">reconfigure() : void</text><ellipse cx="126.5" cy="439.3583" fill="#84BE84" rx="3" ry="3" style="stroke:#038048;stroke-width:1.0;"/><text fill="#000000" font-family="sans-serif" font-size="14" lengthAdjust="spacing" textLength="160" x="135.5" y="447.3243">wall_texture(char * ) : int</text><ellipse cx="126.5" cy="458.4263" fill="#84BE84" rx="3" ry="3" style="stroke:#038048;stroke-width:1.0;"/><text fill="#000000" font-family="sans-serif" font-size="14" lengthAdjust="spacing" textLength="139" x="135.5" y="466.3922">make_fireballs() : void</text></g><!--MD5=[273e1f811a246da6057649f9f090fd64]
class C_0001321287422961384243--><g id="elem_C_0001321287422961384243"><rect codeLine="47" fill="#F1F1F1" height="410.2904" id="C_0001321287422961384243" rx="2.5" ry="2.5" style="stroke:#181818;stroke-width:0.5;" width="494" x="7" y="535"/><ellipse cx="215.25" cy="551" fill="#ADD1B2" rx="11" ry="11" style="stroke:#181818;stroke-width:1.0;"/><path d="M215.3594,546.2813 Q214.4375,546.2813 213.7031,546.5938 Q212.9844,546.9063 212.4844,547.5 Q211.9844,548.0781 211.7031,548.9531 Q211.4375,549.8281 211.4375,550.9219 Q211.4375,552.3594 211.875,553.4063 Q212.3281,554.4531 213.1719,555 Q214.0313,555.5469 215.3438,555.5469 Q216.125,555.5469 216.8125,555.4219 Q217.5156,555.2813 218.5156,554.9688 L218.5156,556.8438 Q217.6563,557.1719 216.8906,557.2969 Q216.1406,557.4219 215.125,557.4219 Q213.2031,557.4219 211.8906,556.625 Q210.5938,555.8125 209.9375,554.3438 Q209.2813,552.8594 209.2813,550.8906 Q209.2813,549.4688 209.6719,548.2969 Q210.0781,547.1094 210.8594,546.2344 Q211.6406,545.3594 212.7813,544.8906 Q213.9219,544.4063 215.3906,544.4063 Q216.3438,544.4063 217.2344,544.6094 Q218.1406,544.7969 219.0781,545.2656 L218.25,547.0469 Q217.4688,546.6719 216.8125,546.4844 Q216.1563,546.2813 215.3594,546.2813 Z " fill="#000000"/><text fill="#000000" font-family="sans-serif" font-size="14" lengthAdjust="spacing" textLength="69" x="235.75" y="556.432">Labyrinthe</text><line style="stroke:#181818;stroke-width:0.5;" x1="8" x2="500" y1="567" y2="567"/><rect fill="none" height="6" style="stroke:#C82930;stroke-width:1.0;" width="6" x="15" y="575"/><text fill="#000000" font-family="sans-serif" font-size="14" lengthAdjust="spacing" textLength="239" x="27" y="585.9659">_map : std::vector&lt;std::vector&lt;Cell&gt;&gt;</text><rect fill="none" height="6" style="stroke:#C82930;stroke-width:1.0;" width="6" x="15" y="594.0679"/><text fill="#000000" font-family="sans-serif" font-size="14" lengthAdjust="spacing" textLength="70" x="27" y="605.0339">_width : int</text><rect fill="none" height="6" style="stroke:#C82930;stroke-width:1.0;" width="6" x="15" y="613.1358"/><text fill="#000000" font-family="sans-serif" font-size="14" lengthAdjust="spacing" textLength="75" x="27" y="624.1018">_height : int</text><ellipse cx="18" cy="635.2038" fill="none" rx="3" ry="3" style="stroke:#038048;stroke-width:1.0;"/><text fill="#000000" font-family="sans-serif" font-size="14" lengthAdjust="spacing" textLength="161" x="27" y="643.1697">_walls : std::vector&lt;Wall&gt;</text><ellipse cx="18" cy="654.2717" fill="none" rx="3" ry="3" style="stroke:#038048;stroke-width:1.0;"/><text fill="#000000" font-family="sans-serif" font-size="14" lengthAdjust="spacing" textLength="179" x="27" y="662.2376">_posters : std::vector&lt;Wall&gt;</text><ellipse cx="18" cy="673.3396" fill="none" rx="3" ry="3" style="stroke:#038048;stroke-width:1.0;"/><text fill="#000000" font-family="sans-serif" font-size="14" lengthAdjust="spacing" textLength="187" x="27" y="681.3055">_marks : std::vector&lt;Mark *&gt;</text><ellipse cx="18" cy="692.4075" fill="none" rx="3" ry="3" style="stroke:#038048;stroke-width:1.0;"/><text fill="#000000" font-family="sans-serif" font-size="14" lengthAdjust="spacing" textLength="167" x="27" y="700.3734">_boxes : std::vector&lt;Box&gt;</text><ellipse cx="18" cy="711.4754" fill="none" rx="3" ry="3" style="stroke:#038048;stroke-width:1.0;"/><text fill="#000000" font-family="sans-serif" font-size="14" lengthAdjust="spacing" textLength="200" x="27" y="719.4414">_guards : std::vector&lt;Mover *&gt;</text><line style="stroke:#181818;stroke-width:0.5;" x1="8" x2="500" y1="727.5433" y2="727.5433"/><rect fill="#F24D5C" height="6" style="stroke:#C82930;stroke-width:1.0;" width="6" x="15" y="735.5433"/><text fill="#000000" font-family="sans-serif" font-size="14" lengthAdjust="spacing" textLength="282" x="27" y="746.5093">texture_id(const std::string &amp; filename) : int</text><rect fill="#F24D5C" height="6" style="stroke:#C82930;stroke-width:1.0;" width="6" x="15" y="754.6113"/><text fill="#000000" font-family="sans-serif" font-size="14" lengthAdjust="spacing" textLength="468" x="27" y="765.5772">parse_header(std::ifstream &amp; file) : std::unordered_map&lt;char,std::string&gt;</text><rect fill="#F24D5C" height="6" style="stroke:#C82930;stroke-width:1.0;" width="6" x="15" y="773.6792"/><text fill="#000000" font-family="sans-serif" font-size="14" lengthAdjust="spacing" textLength="193" x="27" y="784.6451">parse(std::ifstream &amp; file) : int</text><ellipse cx="18" cy="795.7471" fill="#84BE84" rx="3" ry="3" style="stroke:#038048;stroke-width:1.0;"/><text fill="#000000" font-family="sans-serif" font-size="14" lengthAdjust="spacing" textLength="257" x="27" y="803.713">Labyrinthe(const char * filename) : void</text><ellipse cx="18" cy="814.815" fill="#84BE84" rx="3" ry="3" style="stroke:#038048;stroke-width:1.0;"/><text fill="#000000" font-family="sans-serif" font-size="14" lengthAdjust="spacing" textLength="125" x="27" y="822.7809">~Labyrinthe() : void</text><ellipse cx="18" cy="833.8829" fill="#84BE84" rx="3" ry="3" style="stroke:#038048;stroke-width:1.0;"/><text fill="#000000" font-family="sans-serif" font-size="14" lengthAdjust="spacing" textLength="73" x="27" y="841.8489">width() : int</text><ellipse cx="18" cy="852.9508" fill="#84BE84" rx="3" ry="3" style="stroke:#038048;stroke-width:1.0;"/><text fill="#000000" font-family="sans-serif" font-size="14" lengthAdjust="spacing" textLength="78" x="27" y="860.9168">height() : int</text><ellipse cx="18" cy="872.0188" fill="#84BE84" rx="3" ry="3" style="stroke:#038048;stroke-width:1.0;"/><text fill="#000000" font-family="sans-serif" font-size="14" lengthAdjust="spacing" textLength="142" x="27" y="879.9847">data(int x, int y) : char</text><ellipse cx="18" cy="891.0867" fill="#84BE84" rx="3" ry="3" style="stroke:#038048;stroke-width:1.0;"/><text fill="#000000" font-family="sans-serif" font-size="14" lengthAdjust="spacing" textLength="169" x="27" y="899.0526">cell(int x, int y) const : Cell</text><ellipse cx="18" cy="910.1546" fill="#84BE84" rx="3" ry="3" style="stroke:#038048;stroke-width:1.0;"/><text fill="#000000" font-family="sans-serif" font-size="14" lengthAdjust="spacing" textLength="143" x="27" y="918.1205">cell(int x, int y) : Cell &amp;</text><ellipse cx="18" cy="929.2225" fill="#84BE84" rx="3" ry="3" style="stroke:#038048;stroke-width:1.0;"/><text fill="#000000" font-family="sans-serif" font-size="14" lengthAdjust="spacing" textLength="187" x="27" y="937.1884">update_mark(int index) : void</text></g><!--MD5=[5c07aa47b326a3dfa303fdbaacecfd42]
reverse link C_0002079627403415545256 to C_0001365247480956715224--><g id="link_C_0002079627403415545256_C_0001365247480956715224"><path codeLine="68" d="M705,844.01 C705,900.46 705,969.75 705,1023.94 " fill="none" id="C_0002079627403415545256-backto-C_0001365247480956715224" style="stroke:#181818;stroke-width:1.0;"/><polygon fill="none" points="705,830.7,701,836.7,705,842.7,709,836.7,705,830.7" style="stroke:#181818;stroke-width:1.0;"/><ellipse cx="711" cy="985.353" fill="none" rx="3" ry="3" style="stroke:#038048;stroke-width:1.0;"/><text fill="#000000" font-family="sans-serif" font-size="13" lengthAdjust="spacing" textLength="33" x="718" y="989.897">_type</text></g><!--MD5=[9ab8b6308c2bb64039c4056978cb45c6]
reverse link C_0001321287422961384243 to C_0002079627403415545256--><g id="link_C_0001321287422961384243_C_0002079627403415545256"><path codeLine="69" d="M514.54,740 C537.64,740 560.25,740 581.34,740 " fill="none" id="C_0001321287422961384243-backto-C_0002079627403415545256" style="stroke:#181818;stroke-width:1.0;"/><polygon fill="none" points="501.27,740,507.27,744,513.27,740,507.27,736,501.27,740" style="stroke:#181818;stroke-width:1.0;"/><rect fill="none" height="6" style="stroke:#C82930;stroke-width:1.0;" width="6" x="521.25" y="725.353"/><text fill="#000000" font-family="sans-serif" font-size="13" lengthAdjust="spacing" textLength="32" x="531.25" y="732.897">_map</text></g><!--MD5=[f7ed9785e16817036d20e9056a8b02a0]
link C_0001321287422961384243 to C_0002079627403415545256--><!--MD5=[5b040a2d52db0cdda49d055018a755fd]
reverse link C_0002069755371297581881 to C_0001321287422961384243--><g id="link_C_0002069755371297581881_C_0001321287422961384243"><path codeLine="70" d="M254,494.64 C254,508.1 254,521.54 254,534.81 " fill="none" id="C_0002069755371297581881-backto-C_0001321287422961384243" style="stroke:#181818;stroke-width:1.0;"/><polygon fill="none" points="247,494.23,254,474.23,261,494.23,247,494.23" style="stroke:#181818;stroke-width:1.0;"/></g><!--MD5=[2614464a8cd9e0fddb0d7c55fbfef7af]
@startuml
enum "CellType" as C_0001365247480956715224
enum C_0001365247480956715224 {
empty
wall
treasure
box
mark
hunter
guard
}
class "Cell" as C_0002079627403415545256
class C_0002079627403415545256 {
+Cell() = default : void
+Cell(CellType type) : void
+Cell(CellType type, int index) : void
+is_empty() const : bool
+_type : CellType
+_index : int
+_mark_index : int
}
abstract "Environnement" as C_0002069755371297581881
abstract C_0002069755371297581881 {
{static} +init(char * filename) : Environnement *
{abstract} +width() = 0 : int
{abstract} +height() = 0 : int
{abstract} +data(int i, int j) = 0 : char
+~Environnement() : void
+reconfigure() : void
+wall_texture(char * ) : int
+make_fireballs() : void
+_walls : Wall *
+_nwall : int
+_picts : Wall *
+_npicts : int
+_boxes : Box *
+_nboxes : int
+_marks : Box *
+_nmarks : int
+_treasor : Box
+_guards : Mover **
+_nguards : int
{static} +scale : const int
{static} +texture_dir : const char *
{static} +modele_dir : const char *
}
class "Labyrinthe" as C_0001321287422961384243
class C_0001321287422961384243 {
-texture_id(const std::string & filename) : int
-parse_header(std::ifstream & file) : std::unordered_map<char,std::string>
-parse(std::ifstream & file) : int
+Labyrinthe(const char * filename) : void
+~Labyrinthe() : void
+width() : int
+height() : int
+data(int x, int y) : char
+cell(int x, int y) const : Cell
+cell(int x, int y) : Cell &
+update_mark(int index) : void
-_map : std::vector<std::vector<Cell>>
-_width : int
-_height : int
+_walls : std::vector<Wall>
+_posters : std::vector<Wall>
+_marks : std::vector<Mark *>
+_boxes : std::vector<Box>
+_guards : std::vector<Mover *>
}
C_0002079627403415545256 o- - C_0001365247480956715224 : +_type
C_0001321287422961384243 o- - C_0002079627403415545256 : -_map
C_0002069755371297581881 <|- - C_0001321287422961384243
C_0002079627403415545256 -[hidden]left- C_0001321287422961384243
@enduml

PlantUML version 1.2022.5(Sat Apr 30 12:55:52 CEST 2022)
(LGPL source distribution)
Java Runtime: OpenJDK Runtime Environment
JVM: OpenJDK 64-Bit Server VM
Default Encoding: UTF-8
Language: fr
Country: FR
--></g></svg>